<?xml version="1.0" encoding="utf-8"?>
<svg viewBox="0 0 500 500" xmlns="http://www.w3.org/2000/svg">
  <path d="M 107.679 4.428 L 129.674 4.428 L 129.674 26.233 L 149.95 26.233 L 149.95 4.428 L 171.948 4.428 L 171.948 70.417 L 149.95 70.417 L 149.95 48.421 L 129.867 48.421 L 129.867 70.417 L 107.679 70.417 M 201.02 26.425 L 181.606 26.425 L 181.606 4.428 L 242.525 4.428 L 242.525 26.425 L 223.016 26.425 L 223.016 70.417 L 201.02 70.417 M 252.187 4.428 L 275.235 4.428 L 289.388 27.668 L 303.542 4.428 L 326.592 4.428 L 326.592 70.417 L 304.594 70.417 L 304.594 37.709 L 289.197 61.428 L 273.799 37.709 L 273.799 70.417 L 252.187 70.417 M 337.494 4.428 L 359.489 4.428 L 359.489 48.613 L 390.667 48.613 L 390.667 70.417 L 337.494 70.417" style="fill-rule: nonzero; paint-order: fill; fill: rgb(209, 209, 209); stroke: rgb(188, 188, 188); vector-effect: non-scaling-stroke;"/>
  <path d="M 106.913 454.878 L 75.354 100.639 L 422.324 100.639 L 390.763 454.685 L 248.552 494.087" style="" fill="#e44d26"/>
  <path d="M 247.677 463.381 L 247.677 129.133 L 389.506 129.133 L 362.441 431.343" style="" fill="#f16529"/>
  <path d="M 139.813 173.037 L 248.838 173.037 L 248.838 216.455 L 187.438 216.455 L 191.458 260.927 L 248.838 260.927 L 248.838 304.25 L 151.672 304.25 M 153.584 326.055 L 197.194 326.055 L 200.256 360.77 L 248.838 373.776 L 248.838 419.109 L 159.705 394.243" style="" fill="#ebebeb"/>
  <path d="M 357.481 173.037 L 248.648 173.037 L 248.648 216.455 L 353.466 216.455 M 349.545 260.927 L 248.648 260.927 L 248.648 304.345 L 302.203 304.345 L 297.136 360.77 L 248.648 373.776 L 248.648 418.918 L 337.589 394.243" style="" fill="#fff"/>
</svg>