<?xml version="1.0" encoding="utf-8"?>
<svg viewBox="0 0 500 500" xmlns="http://www.w3.org/2000/svg">
  <defs>
    <linearGradient gradientUnits="userSpaceOnUse" x1="252.292" y1="4.323" x2="252.292" y2="70.312" id="gradient-0" spreadMethod="pad">
      <stop offset="0" style="stop-color: rgba(234, 234, 234, 1)"/>
      <stop offset="1" style="stop-color: rgba(183, 183, 183, 1)"/>
    </linearGradient>
  </defs>
  <path d="M 110.798 4.323 L 132.793 4.323 L 132.793 26.128 L 153.069 26.128 L 153.069 4.323 L 175.067 4.323 L 175.067 70.312 L 153.069 70.312 L 153.069 48.316 L 132.986 48.316 L 132.986 70.312 L 110.798 70.312 M 204.139 26.32 L 184.725 26.32 L 184.725 4.323 L 245.644 4.323 L 245.644 26.32 L 226.135 26.32 L 226.135 70.312 L 204.139 70.312 M 255.306 4.323 L 278.354 4.323 L 292.507 27.563 L 306.661 4.323 L 329.711 4.323 L 329.711 70.312 L 307.713 70.312 L 307.713 37.604 L 292.316 61.323 L 276.918 37.604 L 276.918 70.312 L 255.306 70.312 M 340.613 4.323 L 362.608 4.323 L 362.608 48.508 L 393.786 48.508 L 393.786 70.312 L 340.613 70.312" style="fill-rule: nonzero; fill: url(#gradient-0); paint-order: fill;"/>
  <path fill="#e44d26" d="M 110.032 454.773 L 78.473 100.534 L 425.443 100.534 L 393.882 454.58 L 251.671 493.982" style=""/>
  <path fill="#f16529" d="M 250.796 463.276 L 250.796 129.028 L 392.625 129.028 L 365.56 431.238" style=""/>
  <path fill="#ebebeb" d="M 142.932 172.932 L 251.957 172.932 L 251.957 216.35 L 190.557 216.35 L 194.577 260.822 L 251.957 260.822 L 251.957 304.145 L 154.791 304.145 M 156.703 325.95 L 200.313 325.95 L 203.375 360.665 L 251.957 373.671 L 251.957 419.004 L 162.824 394.138" style=""/>
  <path fill="#fff" d="M 360.6 172.932 L 251.767 172.932 L 251.767 216.35 L 356.585 216.35 M 352.664 260.822 L 251.767 260.822 L 251.767 304.24 L 305.322 304.24 L 300.255 360.665 L 251.767 373.671 L 251.767 418.813 L 340.708 394.138" style=""/>
</svg>