<?xml version="1.0" encoding="utf-8"?>
<svg viewBox="0 0 500 500" xmlns="http://www.w3.org/2000/svg">
  <path style="fill: rgb(255, 255, 255); stroke-width: 1.33333;" d="M 77.585 99.872 L 77.639 104.26 C 77.67 106.673 84.661 186.573 93.176 281.813 L 108.658 454.979 L 178.241 474.461 C 216.512 485.176 248.614 493.997 249.579 494.065 C 250.545 494.132 283.071 485.4 321.86 474.66 C 384.051 457.441 392.446 454.846 392.891 452.715 C 393.512 449.745 423.967 106.182 423.936 102.506 L 423.914 99.872 L 250.749 99.872 L 77.585 99.872 Z" id="path118"/>
  <path id="path88" d="M 178.792 475.626 L 108.591 456.004 L 107.672 450.812 C 106.857 446.196 76.414 106.177 76.414 101.685 C 76.414 100.059 94.189 99.873 250.749 99.873 C 416.007 99.873 425.084 99.981 425.071 101.922 C 425.015 110.304 393.504 454.825 392.73 455.512 C 391.752 456.377 255.874 494.233 251.334 494.904 C 250.047 495.095 217.403 486.419 178.792 475.626 Z M 295.015 406.291 C 318.611 399.783 338.257 394.122 338.673 393.713 C 339.09 393.303 341.85 365.325 344.809 331.54 C 347.767 297.755 350.487 267.876 350.852 265.142 L 351.516 260.169 L 300.547 260.169 L 249.578 260.169 L 249.578 281.814 L 249.578 303.46 L 277.097 303.46 L 304.615 303.46 L 304.067 306.092 C 303.766 307.54 302.596 319.983 301.467 333.743 C 300.27 348.323 298.851 359.322 298.067 360.108 C 297.325 360.848 286.114 364.282 273.15 367.737 L 249.578 374.02 L 249.578 396.071 C 249.578 411.123 249.981 418.123 250.847 418.123 C 251.543 418.123 271.419 412.798 295.015 406.291 Z M 350.844 232.965 C 350.071 227.233 343.182 150.335 343.182 147.436 C 343.182 145.674 339.131 145.505 296.965 145.505 L 250.749 145.505 L 250.749 168.14 L 250.749 190.774 L 271.516 191.575 C 282.939 192.016 294.961 192.685 298.23 193.064 L 304.176 193.752 L 305.619 211.458 C 306.413 221.195 307.359 231.137 307.72 233.551 L 308.38 237.939 L 329.948 237.939 L 351.516 237.939 L 350.844 232.965 Z" style="fill: rgb(234, 235, 236); stroke-width: 1.33333;"/>
  <path id="path80" d="M 178.241 474.461 L 108.658 454.979 L 93.176 281.814 C 84.661 186.573 77.67 106.674 77.639 104.261 L 77.584 99.873 L 250.749 99.873 L 423.914 99.873 L 423.937 102.507 C 423.967 106.183 393.512 449.746 392.891 452.715 C 392.446 454.847 384.051 457.441 321.86 474.661 C 283.071 485.401 250.545 494.134 249.579 494.066 C 248.614 493.998 216.512 485.176 178.241 474.461 Z M 295.067 407.118 C 319.122 400.43 339.143 394.407 339.56 393.732 C 339.978 393.057 342.851 363.65 345.946 328.384 C 349.041 293.118 351.826 263.342 352.136 262.215 C 352.668 260.282 348.575 260.169 277.974 260.169 L 203.247 260.169 L 206.429 226.531 C 208.179 208.029 209.653 192.844 209.704 192.785 C 209.756 192.726 220.723 192.377 234.076 192.008 C 255.972 191.403 301.123 193.149 302.634 194.66 C 303.198 195.224 306.911 231.648 306.911 236.62 C 306.911 239.072 307.242 239.108 329.582 239.108 L 352.254 239.108 L 351.72 234.135 C 351.426 231.401 349.506 210.208 347.452 187.042 L 343.719 144.921 L 256.282 144.621 C 186.722 144.382 168.845 144.621 168.837 145.791 C 168.831 146.599 168.323 151.735 167.704 157.206 C 166.21 170.442 154.806 298.331 154.806 301.863 L 154.806 304.63 L 229.206 304.63 L 303.606 304.63 L 302.942 309.018 C 302.578 311.431 301.422 323.672 300.374 336.221 C 299.325 348.769 298.129 359.36 297.716 359.757 C 296.625 360.803 252.857 372.496 250.128 372.47 C 248.861 372.457 237.556 369.637 225.007 366.202 L 202.192 359.957 L 201.356 350.135 C 200.897 344.735 200.196 337.024 199.8 333.003 L 199.081 325.691 L 176.945 325.691 L 154.806 325.691 L 154.855 330.079 C 154.948 338.283 160.268 393.553 161.04 394.326 C 161.934 395.219 246.961 419.121 249.579 419.214 C 250.545 419.249 271.015 413.805 295.067 407.118 Z" style="fill: rgb(240, 190, 37); stroke-width: 1.33333;"/>
  <path id="path78" d="M 178.241 474.461 L 108.658 454.979 L 93.176 281.814 C 84.661 186.573 77.67 106.674 77.639 104.261 L 77.584 99.873 L 250.749 99.873 L 423.914 99.873 L 423.937 102.507 C 423.967 106.183 393.512 449.746 392.891 452.715 C 392.446 454.847 384.051 457.441 321.86 474.661 C 283.071 485.401 250.545 494.134 249.579 494.066 C 248.614 493.998 216.512 485.176 178.241 474.461 Z M 308.004 448.398 C 338.613 439.951 364.232 432.448 364.934 431.724 C 366.029 430.598 392.465 140.866 392.358 131.172 L 392.323 127.954 L 321.536 127.954 L 250.749 127.954 L 250.749 136.145 L 250.749 144.335 L 209.797 144.335 C 177.822 144.335 168.845 144.656 168.837 145.799 C 168.831 146.602 168.323 151.735 167.704 157.206 C 166.21 170.442 154.806 298.331 154.806 301.863 L 154.806 304.63 L 202.777 304.63 L 250.749 304.63 L 250.749 338.56 C 250.749 364.937 250.424 372.487 249.286 372.47 C 248.482 372.457 237.556 369.637 225.007 366.202 L 202.192 359.957 L 201.356 350.135 C 200.897 344.735 200.196 337.024 199.8 333.003 L 199.081 325.691 L 176.945 325.691 L 154.806 325.691 L 154.855 330.079 C 154.995 342.628 160.425 393.856 161.698 394.643 C 162.472 395.121 182.825 400.969 206.928 407.639 L 250.749 419.765 L 250.749 441.76 C 250.749 453.856 251.11 463.754 251.55 463.754 C 251.991 463.754 277.396 456.844 308.004 448.398 Z M 206.306 226.844 C 207.987 208.516 209.593 193.313 209.873 193.06 C 210.154 192.806 219.466 192.347 230.566 192.04 L 250.749 191.482 L 250.749 225.825 L 250.749 260.169 L 226.998 260.169 L 203.247 260.169 L 206.306 226.844 Z" style="fill: rgb(228, 161, 38); stroke-width: 1.33333;"/>
  <path id="path76" d="M 187.567 58.338 L 187.567 47.222 L 203.363 47.222 L 219.158 47.222 L 219.158 25.578 L 219.158 3.931 L 230.273 3.931 L 241.388 3.931 L 241.388 36.692 L 241.388 69.453 L 214.477 69.453 L 187.567 69.453 L 187.567 58.338 Z M 251.918 60.679 L 251.918 51.903 L 266.545 51.903 C 274.588 51.903 281.17 51.605 281.17 51.243 C 281.17 50.878 274.588 43.448 266.545 34.73 L 251.918 18.879 L 251.918 11.405 L 251.918 3.931 L 282.34 3.931 L 312.761 3.931 L 312.761 12.67 L 312.761 21.41 L 298.479 21.738 L 284.197 22.068 L 299.065 38.077 L 313.931 54.086 L 313.931 61.77 L 313.931 69.453 L 282.924 69.453 L 251.918 69.453 L 251.918 60.679 Z" style="stroke-width: 1.33333; fill: rgb(209, 209, 209); stroke: rgb(188, 188, 188); vector-effect: non-scaling-stroke;"/>
</svg>